<?xml version="1.0" encoding="UTF-8"?>
<svg id="Layer_1" data-name="Layer 1" xmlns="http://www.w3.org/2000/svg" viewBox="0 0 886.6 851.67">
  <g>
    <path d="M818.22,543.5c-.75-.75-1.5-1.5-2.18-2.25,16.08-10.97,34.8-18.19,54.12-20.67-2.93-35.63-25.1-69.07-56.75-85.76,18.87-30.36,37.66-60.8,56.52-91.24-27.73-13.75-55.77-26.91-84.03-39.61l-2.25-2.1c3.38-3.46,6.61-6.91,9.85-10.45l.53.53c27.28,12.48,54.49,24.88,81.7,37.35,4.74,2.1,10.07,5.19,10.6,10.3.3,3.46-1.65,6.61-3.61,9.47-19.02,28.03-38.11,55.99-57.12,84.03,18.41-3.98,32.54,15.78,39.83,33.15,8.72,20.82,15.56,42.54,20.37,64.64-22.85,0-45.62,6.99-64.49,19.77-1.05-2.41-2.03-4.81-3.08-7.14Z" style="fill: #000; stroke-width: 0px;"/>
    <path d="M677.52,392.57l.68.08c37.96-26.83,73.28-57.27,105.45-90.79l2.25,2.1c28.26,12.7,56.29,25.86,84.03,39.61-18.87,30.44-37.66,60.88-56.52,91.24,31.64,16.69,53.81,50.13,56.75,85.76-19.32,2.48-38.03,9.7-54.12,20.67-43.97-45.85-87.86-91.77-131.83-137.62-2.41-2.78-4.81-5.64-7.14-8.42-.53-.6-.98-1.2-.9-1.95.15-.6.9-.9,1.35-.68Z" style="fill: #e8b1c1; stroke-width: 0px;"/>
    <path d="M73.23,697.12c.15.83.53,1.58,1.13,2.1,1.43,1.28,3.46,1.5,5.34,1.73,11.12,1.13,22.25,2.25,33.37,3.31,6.91.75,13.9,1.43,20.89.98,7.44-.45,14.81-2.18,22.25-2.86,13.98-1.35,28.34.9,41.19,6.54-4.43,33.22.68,67.57,14.58,98.08,33.45-15.11,66.89-30.29,100.26-45.47,11.2-5.04,22.4-10.15,32.47-17.21,29.39-20.59,45.47-55.54,72.53-79.07l.83-1.2c20.22-16.38,39.53-34.05,57.65-52.69-2.18,27.06,20.22,50.21,44.34,62.83,24.05,12.63,51.33,19.02,73.58,34.72l1.88.9c7.59,8.64,15.18,17.29,22.7,25.86,4.28,4.89,8.57,9.7,13.53,13.83,11.42,9.4,25.86,14.28,40.14,18.41,15.26,4.36,30.82,8.12,46.45,11.12v-.08c20.29-30.44,29.31-68.17,24.88-104.47,11.05-8.19,25.03-10.9,38.56-13.38,21.42-3.91,42.77-7.89,64.19-11.8l2.33-.6c-14.66-61.48-59.15-111.01-101.99-157.61-25.63-27.81-51.18-55.62-76.74-83.43l.15-1.88c-4.96-1.05-7.37-7.22-6.16-12.1,1.2-4.96,4.96-8.79,8.57-12.25,44.42-42.62,101.39-75.69,128.07-131.23,13.08-27.21,17.59-57.57,21.87-87.49l2.48-3.08c-10.67-10.45-27.43-10.9-42.47-10.22-14.96.68-31.42,1.35-43.22-7.89-9.4-7.44-13.6-19.47-17.36-30.82-8.19-24.95-16.31-49.83-24.5-74.71l-.75.23c-42.01,22.62-84.03,45.32-126.04,67.94-16.84,9.09-33.82,18.26-48.25,30.67-30.14,25.78-48.18,64.41-81.02,86.51l-1.13-1.65c-10.75-11.05-21.5-22.1-32.24-33.22-6.24-6.46-12.55-12.93-18.11-19.99-7.67-9.7-13.98-20.59-23-29.09-7.89-7.29-17.36-12.48-26.83-17.59-25.33-13.75-50.66-27.43-76.74-39.46-18.49-8.57-37.35-16.16-56.45-23.3-12.55-4.66-26.16-9.17-39.23-6.31l.23,1.35c-7.74,33.22-9.17,67.87-4.21,101.62-34.42,5.86-69.37,8.72-104.4,8.42,8.34,6.54,10.67,17.81,13.08,28.11,11.12,47.8,35.33,92.52,69.3,128l.38.83c35.25,38.56,74.48,73.43,116.95,103.8-46.6,29.84-84.86,72.68-109.21,122.36l.3.15c-10.52,23.22-21.12,46.45-31.64,69.75-5.86,12.85-11.65,25.7-18.19,38.26-7.89,15.11-16.76,29.76-26.46,43.74h-.08ZM589.96,77.58l-.3-.68c2.33-1.28,4.66-2.63,6.91-4.13,3.98-2.56,7.74-5.34,11.35-8.42l-.3-.68c33.75-14.66,67.49-29.24,101.32-43.89,14.43,38.86,28.86,77.64,43.29,116.5,27.36-8.42,56.67.75,83.8,9.92,4.13,1.43,8.79,3.23,10.45,7.29,1.28,3.01.53,6.39-.3,9.55-10.97,43.82-27.73,86.21-49.61,125.67l-.38-.15c-.9.98-1.8,1.95-2.71,2.86-3.23,3.53-6.46,6.99-9.85,10.45-32.17,33.52-67.49,63.96-105.45,90.79l-.68-.08c-.45-.23-1.2.08-1.35.68-.08.75.38,1.35.9,1.95,2.33,2.78,4.74,5.64,7.14,8.42,43.97,45.85,87.86,91.77,131.83,137.62.68.75,1.43,1.5,2.18,2.25,1.05,2.33,2.03,4.74,3.08,7.14,1.43,3.31,2.86,6.61,4.28,9.92l-1.2.9c19.17,25.4,34.12,53.97,44.19,84.25.68,2.1,1.35,4.36.68,6.46-.98,3.46-4.96,5.04-8.42,6.09-33.9,10.3-68.32,19.02-102.97,26.16,3.98,39.31-8.79,79.97-34.35,109.88l-.3-.23c-41.11-9.02-81.4-21.5-120.41-37.28l.15-.38c-1.58-.53-3.08-1.2-4.43-2.25l.38-.53c-2.33-5.34-5.04-10.45-8.27-15.33-3.08-4.89-6.69-9.55-10.6-13.83-19.24-13.53-39.83-25.25-61.33-34.8-12.78-5.71-26.08-10.75-36.6-19.92-10.52-9.24-17.74-23.75-13.9-37.13-39.61,44.95-81.4,88.01-125.14,129.05-2.86,2.71-5.71,5.34-8.57,7.97l-2.93,2.71c-46.15,10-90.19,29.46-128.67,56.75-4.21-37.35-32.39-73.73-19.77-109.21l-1.43-2.18c-33.9-.83-67.87-1.65-101.77-2.48-6.69-.15-14.66-1.05-17.89-6.91-3.23-5.86.23-13,3.53-18.79,22.77-39.91,41.64-82,56.29-125.52l.68-.98c-.98-.6-1.88-1.2-2.86-1.88,2.56-4.21,5.11-8.49,7.74-12.78,29.76-49.23,62.91-97.86,112.14-126.8-50.58-33.3-95.08-75.76-130.85-124.62-.15,0-.23.08-.38.08-.75-1.05-1.5-2.1-2.33-3.08-3.61-4.06-8.42-6.69-12.03-10.52-.08,0-.08-.08-.08-.08-1.73-2.93-3.38-5.94-5.04-8.87-20.82-38.26-35.17-79.97-42.16-122.89l-.15-4.43c35.25-1.43,70.5-2.86,105.83-4.28-6.99-30.97-5.34-63.89,4.89-94.03,1.5-4.66,3.53-9.55,7.67-12.18,3.16-2.03,7.07-2.41,10.82-2.48,21.04-.15,40.89,9.47,59.75,18.87,34.42,17.06,68.77,34.2,103.19,51.26l1.8-2.63c.38-1.13.83-2.18,1.28-3.31,2.93,2.86,5.86,5.71,8.79,8.64,32.92,32.17,64.86,65.54,95.68,99.81,32.92-56.6,83.88-102.59,143.71-129.28Z" style="fill: #000; stroke-width: 0px;"/>
    <path d="M440.91,221.36c32.84-22.1,50.88-60.73,81.02-86.51,14.43-12.4,31.42-21.57,48.25-30.67,42.01-22.62,84.03-45.32,126.04-67.94l.75-.23c8.19,24.88,16.31,49.76,24.5,74.71,3.76,11.35,7.97,23.37,17.36,30.82,11.8,9.24,28.26,8.57,43.22,7.89,15.03-.68,31.79-.23,42.47,10.22l-2.48,3.08c-4.28,29.91-8.79,60.28-21.87,87.49-26.68,55.54-83.65,88.61-128.07,131.23-3.61,3.46-7.37,7.29-8.57,12.25-1.2,4.89,1.2,11.05,6.16,12.1l-.15,1.88c25.55,27.81,51.11,55.62,76.74,83.43,42.84,46.6,87.34,96.13,101.99,157.61l-2.33.6c-21.42,3.91-42.77,7.89-64.19,11.8-13.53,2.48-27.51,5.19-38.56,13.38,4.43,36.3-4.58,74.03-24.88,104.47v.08c-15.63-3.01-31.19-6.76-46.45-11.12-14.28-4.13-28.71-9.02-40.14-18.41-4.96-4.13-9.24-8.94-13.53-13.83-7.52-8.57-15.11-17.21-22.7-25.86l-1.88-.9c-22.25-15.71-49.53-22.1-73.58-34.72-24.13-12.63-46.52-35.78-44.34-62.83-18.11,18.64-37.43,36.3-57.65,52.69l-.83,1.2c-27.06,23.53-43.14,58.47-72.53,79.07-10.07,7.07-21.27,12.18-32.47,17.21-33.37,15.18-66.82,30.36-100.26,45.47-13.9-30.52-19.02-64.86-14.58-98.08-12.85-5.64-27.21-7.89-41.19-6.54-7.44.68-14.81,2.41-22.25,2.86-6.99.45-13.98-.23-20.89-.98-11.12-1.05-22.25-2.18-33.37-3.31-1.88-.23-3.91-.45-5.34-1.73-.6-.53-.98-1.28-1.13-2.1h.08c9.7-13.98,18.56-28.64,26.46-43.74,6.54-12.55,12.33-25.4,18.19-38.26,10.52-23.3,21.12-46.52,31.64-69.75l-.3-.15c24.35-49.68,62.61-92.52,109.21-122.36-42.47-30.36-81.7-65.24-116.95-103.8l-.38-.83c-33.97-35.48-58.17-80.2-69.3-128-2.41-10.3-4.74-21.57-13.08-28.11,35.02.3,69.97-2.56,104.4-8.42-4.96-33.75-3.53-68.4,4.21-101.62l-.23-1.35c13.08-2.86,26.68,1.65,39.23,6.31,19.09,7.14,37.96,14.73,56.45,23.3,26.08,12.03,51.41,25.7,76.74,39.46,9.47,5.11,18.94,10.3,26.83,17.59,9.02,8.49,15.33,19.39,23,29.09,5.56,7.07,11.88,13.53,18.11,19.99,10.75,11.12,21.5,22.17,32.24,33.22l1.13,1.65ZM679.7,613.85c15.41,3.08,31.79,1.43,46.3-4.58-26.76-66.29-88.16-117.48-158.21-131.91-12.03-2.56-24.5-4.06-35.48-9.55,1.65-4.66,3.16-9.24,4.58-13.83,4.74-15.26,9.4-31.94,3.83-46.98-.23-.68-.53-1.28-.83-1.88,21.72-30.44,40.89-62.76,63.51-92.6,23.45-30.82,51.26-59.38,85.83-76.81l.08-.23c-14.73-9.62-33.6-12.78-50.66-8.49,4.43-15.11,4.28-31.49-.38-46.52-68.47,20.52-125.14,76.96-145.96,145.36-3.61,11.8-6.24,24.2-12.85,34.65l-.38,1.35c-14.81-4.43-30.36-6.46-45.85-5.86l-.08-1.8c-8.42-5.86-16.91-11.72-25.33-17.59l-.98.83c-28.86-25.78-60.2-48.78-88.54-75.24-28.26-26.46-53.89-57.05-67.64-93.2l-.23-.15c-11.05,13.68-16.16,32.17-13.6,49.61-14.58-6.01-30.89-7.59-46.3-4.51,13.38,70.27,63.74,132.36,129.65,160.09,11.2,4.74,23.07,8.64,32.77,16.01l-.08.08c1.5,2.86,2.41,5.94,2.71,9.09l-.9.15c-6.61,21.5-12.78,45.25-9.55,66.82-1.13.38-2.18.83-3.23,1.28l.08,1.05c-24.8,29.69-46.75,61.86-72.15,91.02-25.48,29.16-55.17,55.77-90.87,70.8l-.08.15c14.05,10.67,32.62,15.11,49.98,11.95-5.49,14.73-6.54,31.12-2.86,46.45,69.67-15.78,130.1-68.17,155.51-134.99,4.36-11.35,7.82-23.3,14.88-33.22,14.88,4.96,31.19,7.59,46.6,9.62,12.55,1.65,25.48,3.31,37.73.08.98-.23,1.95-.53,2.93-.9l6.16.6c33.37,19.77,68.55,36.23,101.39,56.67,32.92,20.44,63.89,45.47,84.48,78.32l.23.08c8.19-15.56,9.62-34.65,3.76-51.26Z" style="fill: #ebc8d1; stroke-width: 0px;"/>
    <path d="M582.89,572.81c18.19,6.46,36.75,13.3,51.56,25.78,13.9,11.65,23.53,27.58,35.48,41.19l.9-.75c-4.89-12.33-8.12-25.4-9.55-38.56,13.6.68,27.28.38,40.89-.68-3.98-9.24-8.87-18.11-14.73-26.23-20.97-29.16-52.24-48.93-82.68-67.94l-.83-.08c-14.13-7.44-29.16-13.23-44.65-17.21-9.55-2.48-19.39-4.36-28.11-9.02l-2.71-1.2c1.35-3.38,2.63-6.84,3.83-10.3,10.97,5.49,23.45,6.99,35.48,9.55,70.05,14.43,131.46,65.61,158.21,131.91-14.51,6.01-30.89,7.67-46.3,4.58,5.86,16.61,4.43,35.7-3.76,51.26l-.23-.08c-20.59-32.84-51.56-57.87-84.48-78.32-32.84-20.44-68.02-36.9-101.39-56.67l-6.16-.6c6.69-2.18,12.55-5.56,17.74-9.92,14.21,10.67,29.31,20.07,45.1,28.19,13.15,6.69,27.21,12.85,36.68,24.28l-.3.83Z" style="fill: #000; stroke-width: 0px;"/>
    <path d="M687.44,573.56c5.86,8.12,10.75,16.99,14.73,26.23-13.6,1.05-27.28,1.35-40.89.68,1.43,13.15,4.66,26.23,9.55,38.56l-.9.75c-11.95-13.6-21.57-29.54-35.48-41.19-14.81-12.48-33.37-19.32-51.56-25.78l.3-.83c-9.47-11.42-23.53-17.59-36.68-24.28-15.78-8.12-30.89-17.51-45.1-28.19,12.1-10.22,20.59-25.4,27.06-41.41l2.71,1.2c8.72,4.66,18.56,6.54,28.11,9.02,15.48,3.98,30.52,9.77,44.65,17.21l.83.08c30.44,19.02,61.71,38.78,82.68,67.94Z" style="fill: #e8b1c1; stroke-width: 0px;"/>
    <path d="M663.54,239.02l-.68-.9c-12.78,3.76-26.01,5.79-39.31,6.01,1.95-13.53,2.93-27.13,3.08-40.81-9.55,3.08-18.79,7.22-27.43,12.25-30.97,18.11-53.51,47.43-75.24,76.06l-.23.75c-8.64,13.45-15.78,27.88-21.2,42.92-3.38,9.24-6.16,18.94-11.57,27.21l-1.2,3.08c-3.53-1.43-7.07-2.63-10.67-3.76l.38-1.35c6.61-10.45,9.24-22.85,12.85-34.65,20.82-68.4,77.49-124.84,145.96-145.36,4.66,15.03,4.81,31.42.38,46.52,17.06-4.28,35.93-1.13,50.66,8.49l-.08.23c-34.57,17.44-62.38,46-85.83,76.81-22.62,29.84-41.79,62.16-63.51,92.6-2.03-4.81-5.04-9.02-8.57-12.85,10.75-12.18,20.44-25.18,29.09-38.78,7.97-12.48,15.41-25.93,27.58-34.27l.75.38c8.19-17.51,16.69-35.4,30.44-48.93,12.93-12.78,29.69-20.89,44.34-31.64Z" style="fill: #000; stroke-width: 0px;"/>
    <path d="M662.86,238.12l.68.9c-14.66,10.75-31.42,18.87-44.34,31.64-13.75,13.53-22.25,31.42-30.44,48.93l-.75-.38c-12.18,8.34-19.62,21.8-27.58,34.27-8.64,13.6-18.34,26.61-29.09,38.78-3.61-3.91-7.82-7.44-12.1-10.6-9.09-6.61-19.02-12.03-29.46-16.08l1.2-3.08c5.41-8.27,8.19-17.96,11.57-27.21,5.41-15.03,12.55-29.46,21.2-42.92l.23-.75c21.72-28.64,44.27-57.95,75.24-76.06,8.64-5.04,17.89-9.17,27.43-12.25-.15,13.68-1.13,27.28-3.08,40.81,13.3-.23,26.53-2.25,39.31-6.01Z" style="fill: #e8b1c1; stroke-width: 0px;"/>
    <path d="M355.83,95.99c-1.58,3.46-3.16,7.07-4.81,10.6l-.45.45c-2.93-2.93-5.86-5.79-8.79-8.64,11.2-30.29,24.95-59.75,40.81-87.94,2.48-4.28,5.49-9.02,10.3-10,5.41-1.13,10.45,2.78,14.58,6.46,26.01,23.22,52.09,46.37,78.09,69.6,22.55-28.03,51.64-50.73,84.25-65.92,4.43,20.37,14.96,39.31,29.91,53.81l3.31,1.28c1.5-.68,3.08-1.35,4.58-2.03l.3.68c-3.61,3.08-7.37,5.86-11.35,8.42-6.91-6.84-13.9-13.6-20.82-20.44-4.58-4.43-9.32-9.24-10.6-15.48-.45-2.1-.53-4.51-2.1-5.94-2.33-2.1-5.94-.83-8.64.68-13.08,7.37-24.35,17.51-35.55,27.51-11.57,10.45-23.15,20.97-34.8,31.42l-.3.53c-34.8-18.26-58.78-51.64-89.37-76.21l-2.56,2.63-12.85,33.6c-3.01,7.74-6.01,15.56-9.77,23-3.91,7.59-8.64,14.81-13.38,21.95Z" style="fill: #000; stroke-width: 0px;"/>
    <path d="M341.48,779.35l-.45.23-6.09-9.47-.45-.45c2.86-2.63,5.71-5.26,8.57-7.97l1.8,1.88c12.1,14.81,23.68,30.44,31.04,48.1,35.7-18.79,69.9-40.44,102.22-64.56,13.6,32.39,29.76,67.57,61.78,82.23l1.13.08c.98-7.22,8.42-12.18,13.53-17.74,5.64-6.09,9.02-13.98,12.25-21.65,6.99-16.61,13.98-33.3,20.97-49.91l2.86-1.8c3.23,4.89,5.94,10,8.27,15.33l-.38.53c-.53-.23-.98-.6-1.43-.98l-.45-.23c-16.38,32.54-32.69,65.16-49,97.71l-.98-.53c-30.74-11.42-56.75-34.95-71.18-64.41-3.38-6.76-5.79-15.86-.45-21.27l-.98-1.13c-29.61,23.9-61.18,45.25-94.4,63.74-3.16,1.8-6.91,3.53-10.22,2.1-2.48-1.05-3.91-3.68-5.19-6.09-7.59-14.58-15.26-29.24-22.77-43.74Z" style="fill: #000; stroke-width: 0px;"/>
    <path d="M483.75,91.03l.3-.53c11.65-10.45,23.22-20.97,34.8-31.42,11.2-10,22.47-20.14,35.55-27.51,2.71-1.5,6.31-2.78,8.64-.68,1.58,1.43,1.65,3.83,2.1,5.94,1.28,6.24,6.01,11.05,10.6,15.48,6.91,6.84,13.9,13.6,20.82,20.44-2.25,1.5-4.58,2.86-6.91,4.13l.3.68c-59.83,26.68-110.79,72.68-143.71,129.28-30.82-34.27-62.76-67.64-95.68-99.81l.45-.45c1.65-3.53,3.23-7.14,4.81-10.6,4.74-7.14,9.47-14.36,13.38-21.95,3.76-7.44,6.76-15.26,9.77-23l12.85-33.6,2.56-2.63c30.59,24.58,54.57,57.95,89.37,76.21Z" style="fill: #e8b1c1; stroke-width: 0px;"/>
    <path d="M590.63,738.31l-2.86,1.8c-6.99,16.61-13.98,33.3-20.97,49.91-3.23,7.67-6.61,15.56-12.25,21.65-5.11,5.56-12.55,10.52-13.53,17.74l-1.13-.08c-32.02-14.66-48.18-49.83-61.78-82.23-32.32,24.13-66.52,45.77-102.22,64.56-7.37-17.66-18.94-33.3-31.04-48.1l-1.8-1.88c43.74-41.04,85.53-84.1,125.14-129.05-3.83,13.38,3.38,27.88,13.9,37.13,10.52,9.17,23.83,14.21,36.6,19.92,21.5,9.55,42.09,21.27,61.33,34.8,3.91,4.28,7.52,8.94,10.6,13.83Z" style="fill: #e8b1c1; stroke-width: 0px;"/>
    <path d="M356.73,443.16c.23,11.05,2.25,22.1,6.09,32.54,1.95,5.19,4.36,10.37,8.27,14.43,2.86,2.93,6.31,5.11,9.85,7.22,25.1,14.66,54.42,22.02,83.5,21.12,7.44-.23,14.96-1.05,21.72-3.98,16.91-7.44,25.33-26.01,32.32-42.99l-.08-.83c2.56-9.24,7.14-17.89,9.32-27.28,3.23-13.9.98-29.01-6.24-41.34-7.22-12.33-19.32-21.72-33.07-25.7-8.64-2.48-17.74-2.86-26.76-3.23-9.24-.38-18.49-.75-27.81-.98-17.44-.45-36.23.08-50.06,10.6-9.55,7.22-15.41,18.26-19.17,29.61-3.31,10.07-5.19,20.59-7.89,30.82ZM531.33,392.27c3.53,3.83,6.54,8.04,8.57,12.85.3.6.6,1.2.83,1.88,5.56,15.03.9,31.72-3.83,46.98-1.43,4.58-2.93,9.17-4.58,13.83-1.2,3.46-2.48,6.91-3.83,10.3-6.46,16.01-14.96,31.19-27.06,41.41-5.19,4.36-11.05,7.74-17.74,9.92-.98.38-1.95.68-2.93.9-12.25,3.23-25.18,1.58-37.73-.08-15.41-2.03-31.72-4.66-46.6-9.62-3.61-1.2-7.22-2.56-10.67-4.13-13.53-6.09-25.18-14.81-32.84-27.73-1.2-2.1-2.33-4.28-3.23-6.46-2.25-5.19-3.68-10.6-4.51-16.16-3.23-21.57,2.93-45.32,9.55-66.82l.9-.15c.08.38.15.68.15,1.05l1.5.08c0-6.61,2.63-13.3,6.84-18.64,6.31-7.97,15.71-13,25.18-16.76,5.49-2.18,11.12-3.91,16.84-5.26,8.87-2.18,18.04-3.38,27.13-3.68,15.48-.6,31.04,1.43,45.85,5.86,3.61,1.13,7.14,2.33,10.67,3.76,10.45,4.06,20.37,9.47,29.46,16.08,4.28,3.16,8.49,6.69,12.1,10.6Z" style="fill: #000; stroke-width: 0px;"/>
    <path d="M521.48,402.04c7.22,12.33,9.47,27.43,6.24,41.34-2.18,9.4-6.76,18.04-9.32,27.28l.08.83c-6.99,16.99-15.41,35.55-32.32,42.99-6.76,2.93-14.28,3.76-21.72,3.98-29.09.9-58.4-6.46-83.5-21.12-3.53-2.1-6.99-4.28-9.85-7.22-3.91-4.06-6.31-9.24-8.27-14.43-3.83-10.45-5.86-21.5-6.09-32.54,2.71-10.22,4.58-20.74,7.89-30.82,3.76-11.35,9.62-22.4,19.17-29.61,13.83-10.52,32.62-11.05,50.06-10.6,9.32.23,18.56.6,27.81.98,9.02.38,18.11.75,26.76,3.23,13.75,3.98,25.86,13.38,33.07,25.7Z" style="fill: #fff; stroke-width: 0px;"/>
    <path d="M323.81,277.5c-16.61-10-33.45-20.22-45.55-35.33-11.35-14.13-17.74-31.64-26.83-47.35l-1.05.6c2.48,13.08,3.08,26.46,1.95,39.68-13.23-3.23-26.68-5.71-40.29-7.22,2.1,9.85,5.26,19.39,9.4,28.56,14.88,32.69,41.71,58.1,67.94,82.6l.75.3c12.48,10,26.08,18.56,40.51,25.48,8.79,4.28,18.04,7.97,25.7,14.13,1.95.75,3.98,1.43,5.94,2.1l1.8.6c-4.21,5.34-6.84,12.03-6.84,18.64l-1.5-.08c0-.38-.08-.68-.15-1.05-.3-3.16-1.2-6.24-2.71-9.09l.08-.08c-9.7-7.37-21.57-11.27-32.77-16.01-65.92-27.73-116.27-89.82-129.65-160.09,15.41-3.08,31.72-1.5,46.3,4.51-2.56-17.44,2.56-35.93,13.6-49.61l.23.15c13.75,36.15,39.38,66.74,67.64,93.2,28.34,26.46,59.68,49.46,88.54,75.24l.98-.83c8.42,5.86,16.91,11.72,25.33,17.59l.08,1.8c-9.09.3-18.26,1.5-27.13,3.68l-.45-1.8c-4.28-3.83-8.64-7.74-12.93-11.57l.75-.83c-11.88-13.15-24.88-25.33-38.78-36.3-11.65-9.17-24.28-17.96-31.27-30.97l.38-.68Z" style="fill: #000; stroke-width: 0px;"/>
    <path d="M392.74,346.28c4.28,3.83,8.64,7.74,12.93,11.57l.45,1.8c-5.71,1.35-11.35,3.08-16.84,5.26-9.47,3.76-18.87,8.79-25.18,16.76l-1.8-.6c-1.95-.68-3.98-1.35-5.94-2.1-7.67-6.16-16.91-9.85-25.7-14.13-14.43-6.91-28.03-15.48-40.51-25.48l-.75-.3c-26.23-24.5-53.06-49.91-67.94-82.6-4.13-9.17-7.29-18.71-9.4-28.56,13.6,1.5,27.06,3.98,40.29,7.22,1.13-13.23.53-26.61-1.95-39.68l1.05-.6c9.09,15.71,15.48,33.22,26.83,47.35,12.1,15.11,28.94,25.33,45.55,35.33l-.38.68c6.99,13,19.62,21.8,31.27,30.97,13.9,10.97,26.91,23.15,38.78,36.3l-.75.83Z" style="fill: #e8b1c1; stroke-width: 0px;"/>
    <path d="M284.96,553.49c-9.4,16.91-19.09,34.12-33.75,46.75-13.75,11.8-31.04,18.79-46.45,28.41l.68,1.05c13-2.93,26.38-4.06,39.61-3.31-2.86,13.3-4.81,26.83-5.86,40.44,9.77-2.41,19.24-5.86,28.26-10.3,32.09-16.01,56.6-43.74,80.27-70.73l.23-.75c9.55-12.85,17.66-26.76,24.13-41.34,3.98-9.09,7.37-18.49,13.38-26.38l.3-.83c3.46,1.58,7.07,2.93,10.67,4.13-7.07,9.92-10.52,21.87-14.88,33.22-25.4,66.82-85.83,119.2-155.51,134.99-3.68-15.33-2.63-31.72,2.86-46.45-17.36,3.16-35.93-1.28-49.98-11.95l.08-.15c35.7-15.03,65.39-41.64,90.87-70.8,25.4-29.16,47.35-61.33,72.15-91.02l-.08-1.05c1.05-.45,2.1-.9,3.23-1.28.83,5.56,2.25,10.97,4.51,16.16-12.48,12.18-23.9,25.25-34.2,39.23-8.72,11.95-17.06,24.8-29.76,32.32l-.75-.38Z" style="fill: #000; stroke-width: 0px;"/>
    <path d="M385.75,516.51l-.3.83c-6.01,7.89-9.4,17.29-13.38,26.38-6.46,14.58-14.58,28.49-24.13,41.34l-.23.75c-23.68,26.98-48.18,54.72-80.27,70.73-9.02,4.43-18.49,7.89-28.26,10.3,1.05-13.6,3.01-27.13,5.86-40.44-13.23-.75-26.61.38-39.61,3.31l-.68-1.05c15.41-9.62,32.69-16.61,46.45-28.41,14.66-12.63,24.35-29.84,33.75-46.75l.75.38c12.7-7.52,21.04-20.37,29.76-32.32,10.3-13.98,21.72-27.06,34.2-39.23.9,2.18,2.03,4.36,3.23,6.46,7.67,12.93,19.32,21.65,32.84,27.73Z" style="fill: #e8b1c1; stroke-width: 0px;"/>
    <path d="M108.33,297.05c.15,0,.23-.08.38-.08,35.78,48.85,80.27,91.32,130.85,124.62-49.23,28.94-82.38,77.57-112.14,126.8-14.36-9.02-28.64-18.04-42.99-27.06-6.69-4.21-13.45-8.49-20.74-11.65-4.66-2.1-9.62-3.68-14.28-5.86-11.12-5.04-20.74-12.93-30.14-20.67l.08-.15c-.53-.38-1.13-.68-1.73-.98-.3-.15-.6-.38-.6-.68,0-.23.15-.38.3-.6.38-.45.75-.98,1.05-1.5l.08-.08c21.04-27.58,44.87-52.91,71.25-75.54-25.1-13.23-46.98-32.54-63.06-55.84-5.49-7.89-10.45-16.84-9.77-26.38,30.52-8.12,60.95-16.16,91.47-24.35Z" style="fill: #e8b1c1; stroke-width: 0px;"/>
    <path d="M18.44,479.16l-.08.08c-.3.53-.68,1.05-1.05,1.5-.15.23-.3.38-.3.6,0,.3.3.53.6.68.6.3,1.2.6,1.73.98l-.08.15c9.4,7.74,19.02,15.63,30.14,20.67,4.66,2.18,9.62,3.76,14.28,5.86,7.29,3.16,14.05,7.44,20.74,11.65,14.36,9.02,28.64,18.04,42.99,27.06-2.63,4.28-5.19,8.57-7.74,12.78-37.88-24.73-76.21-49.31-118.45-65.16,12.18-35.4,35.7-66.97,66.22-88.76C34.3,385.96,9.72,351.76.25,313.58l.6-1.2c31.19-11.27,63.51-19.17,96.36-23.45-1.13-1.8-2.18-3.68-3.23-5.49,3.61,3.83,8.42,6.46,12.03,10.52.83.98,1.58,2.03,2.33,3.08-30.52,8.19-60.95,16.23-91.47,24.35-.68,9.55,4.28,18.49,9.77,26.38,16.08,23.3,37.96,42.62,63.06,55.84-26.38,22.62-50.21,47.95-71.25,75.54Z" style="fill: #000; stroke-width: 0px;"/>
  </g>
  <g>
    <path d="M35.05,147.63c3.83-.15,7.67-.3,11.5-.45,35.25-1.43,70.5-2.86,105.83-4.28-6.99-30.97-5.34-63.89,4.89-94.03,1.5-4.66,3.53-9.55,7.67-12.18,3.16-2.03,7.07-2.41,10.82-2.48,21.04-.15,40.89,9.47,59.75,18.87,34.42,17.06,68.77,34.2,103.19,51.26" style="fill: none; stroke: #000; stroke-miterlimit: 10; stroke-width: .25px;"/>
    <path d="M340.5,101.7c.38-1.13.83-2.18,1.28-3.31,11.2-30.29,24.95-59.75,40.81-87.94,2.48-4.28,5.49-9.02,10.3-10,5.41-1.13,10.45,2.78,14.58,6.46,26.01,23.22,52.09,46.37,78.09,69.6,22.55-28.03,51.64-50.73,84.25-65.92,4.43,20.37,14.96,39.31,29.91,53.81" style="fill: none; stroke: #000; stroke-miterlimit: 10; stroke-width: .25px;"/>
    <path d="M603.03,65.7c1.5-.68,3.08-1.35,4.58-2.03,33.75-14.66,67.49-29.24,101.32-43.89,14.43,38.86,28.86,77.64,43.29,116.5,27.36-8.42,56.67.75,83.8,9.92,4.13,1.43,8.79,3.23,10.45,7.29,1.28,3.01.53,6.39-.3,9.55-10.97,43.82-27.73,86.21-49.61,125.67l-1.35,2.48" style="fill: none; stroke: #000; stroke-miterlimit: 10; stroke-width: .25px;"/>
    <path d="M794.02,291.93c27.28,12.48,54.49,24.88,81.7,37.35,4.74,2.1,10.07,5.19,10.6,10.3.3,3.46-1.65,6.61-3.61,9.47-19.02,28.03-38.11,55.99-57.12,84.03,18.41-3.98,32.54,15.78,39.83,33.15,8.72,20.82,15.56,42.54,20.37,64.64-22.85,0-45.62,6.99-64.49,19.77-.68.45-1.28.83-1.88,1.28" style="fill: none; stroke: #000; stroke-miterlimit: 10; stroke-width: .25px;"/>
    <path d="M821.3,557.4c1.05,1.35,2.1,2.71,3.08,4.06,19.17,25.4,34.12,53.97,44.19,84.25.68,2.1,1.35,4.36.68,6.46-.98,3.46-4.96,5.04-8.42,6.09-33.9,10.3-68.32,19.02-102.97,26.16,3.98,39.31-8.79,79.97-34.35,109.88-.08.15-.23.23-.3.38" style="fill: none; stroke: #000; stroke-miterlimit: 10; stroke-width: .25px;"/>
    <path d="M723.21,794.08c-41.11-9.02-81.4-21.5-120.41-37.28" style="fill: none; stroke: #000; stroke-miterlimit: 10; stroke-width: .25px;"/>
    <path d="M597.02,752.22c-.15.23-.23.53-.38.75-16.38,32.54-32.69,65.16-49,97.71-.15.23-.23.53-.38.75" style="fill: none; stroke: #000; stroke-miterlimit: 10; stroke-width: .25px;"/>
    <path d="M546.66,850.15c-30.74-11.42-56.75-34.95-71.18-64.41-3.38-6.76-5.79-15.86-.45-21.27" style="fill: none; stroke: #000; stroke-miterlimit: 10; stroke-width: .25px;"/>
    <path d="M474.06,763.34c-29.61,23.9-61.18,45.25-94.4,63.74-3.16,1.8-6.91,3.53-10.22,2.1-2.48-1.05-3.91-3.68-5.19-6.09-7.59-14.58-15.26-29.24-22.77-43.74-.68-1.2-1.28-2.33-1.88-3.53" style="fill: none; stroke: #000; stroke-miterlimit: 10; stroke-width: .25px;"/>
    <path d="M335.01,771.61c-1.13.23-2.33.45-3.46.75-46.15,10-90.19,29.46-128.67,56.75-4.21-37.35-32.39-73.73-19.77-109.21" style="fill: none; stroke: #000; stroke-miterlimit: 10; stroke-width: .25px;"/>
    <path d="M181.69,717.72c-33.9-.83-67.87-1.65-101.77-2.48-6.69-.15-14.66-1.05-17.89-6.91-3.23-5.86.23-13,3.53-18.79,22.77-39.91,41.64-82,56.29-125.52" style="fill: none; stroke: #000; stroke-miterlimit: 10; stroke-width: .25px;"/>
    <path d="M123.66,563.79c-.38-.23-.75-.53-1.13-.75-.98-.6-1.88-1.2-2.86-1.88-37.88-24.73-76.21-49.31-118.45-65.16,12.18-35.4,35.7-66.97,66.22-88.76l.9-.68" style="fill: none; stroke: #000; stroke-miterlimit: 10; stroke-width: .25px;"/>
    <path d="M70.15,408.96c-.9-.53-1.8-1.13-2.71-1.73C34.3,385.96,9.72,351.76.25,313.58" style="fill: none; stroke: #000; stroke-miterlimit: 10; stroke-width: .25px;"/>
    <path d="M93.9,283.37c-1.73-2.93-3.38-5.94-5.04-8.87-20.82-38.26-35.17-79.97-42.16-122.89" style="fill: none; stroke: #000; stroke-miterlimit: 10; stroke-width: .25px;"/>
    <path d="M.85,312.38c31.19-11.27,63.51-19.17,96.36-23.45-1.13-1.8-2.18-3.68-3.23-5.49" style="fill: none; stroke: #000; stroke-miterlimit: 10; stroke-width: .25px;"/>
    <path d="M93.22,274.57c4.96,7.59,10.15,15.11,15.48,22.4,35.78,48.85,80.27,91.32,130.85,124.62-49.23,28.94-82.38,77.57-112.14,126.8-2.63,4.28-5.19,8.57-7.74,12.78-1.05,1.8-2.1,3.53-3.16,5.34" style="fill: none; stroke: #000; stroke-miterlimit: 10; stroke-width: .25px;"/>
    <path d="M339,95.69c.9.9,1.88,1.8,2.78,2.71,2.93,2.86,5.86,5.71,8.79,8.64,32.92,32.17,64.86,65.54,95.68,99.81,32.92-56.6,83.88-102.59,143.71-129.28.53-.23,1.13-.53,1.65-.75" style="fill: none; stroke: #000; stroke-miterlimit: 10; stroke-width: .25px;"/>
    <path d="M328.1,775.59c1.13-1.05,2.33-2.1,3.46-3.23l2.93-2.71c2.86-2.63,5.71-5.26,8.57-7.97,43.74-41.04,85.53-84.1,125.14-129.05-3.83,13.38,3.38,27.88,13.9,37.13,10.52,9.17,23.83,14.21,36.6,19.92,21.5,9.55,42.09,21.27,61.33,34.8,9.32,6.54,18.26,13.53,26.83,20.89" style="fill: none; stroke: #000; stroke-miterlimit: 10; stroke-width: .25px;"/>
    <path d="M679.32,398.51c1.65,1.73,3.23,3.38,4.89,5.11,43.97,45.85,87.86,91.77,131.83,137.62.68.75,1.43,1.5,2.18,2.25.23.3.53.6.83.9" style="fill: none; stroke: #000; stroke-miterlimit: 10; stroke-width: .25px;"/>
    <path d="M678.19,392.65c37.96-26.83,73.28-57.27,105.45-90.79,3.38-3.46,6.61-6.91,9.85-10.45.9-.9,1.8-1.88,2.71-2.86" style="fill: none; stroke: #000; stroke-miterlimit: 10; stroke-width: .25px;"/>
    <path d="M354.7,399.34c-6.61,21.5-12.78,45.25-9.55,66.82.83,5.56,2.25,10.97,4.51,16.16.9,2.18,2.03,4.36,3.23,6.46,7.67,12.93,19.32,21.65,32.84,27.73,3.46,1.58,7.07,2.93,10.67,4.13,14.88,4.96,31.19,7.59,46.6,9.62,12.55,1.65,25.48,3.31,37.73.08.98-.23,1.95-.53,2.93-.9,6.69-2.18,12.55-5.56,17.74-9.92,12.1-10.22,20.59-25.4,27.06-41.41,1.35-3.38,2.63-6.84,3.83-10.3,1.65-4.66,3.16-9.24,4.58-13.83,4.74-15.26,9.4-31.94,3.83-46.98-.23-.68-.53-1.28-.83-1.88-2.03-4.81-5.04-9.02-8.57-12.85-3.61-3.91-7.82-7.44-12.1-10.6-9.09-6.61-19.02-12.03-29.46-16.08-3.53-1.43-7.07-2.63-10.67-3.76-14.81-4.43-30.36-6.46-45.85-5.86-9.09.3-18.26,1.5-27.13,3.68-5.71,1.35-11.35,3.08-16.84,5.26-9.47,3.76-18.87,8.79-25.18,16.76-4.21,5.34-6.84,12.03-6.84,18.64,0,3.53.68,6.91,2.25,10.07" style="fill: none; stroke: #000; stroke-miterlimit: 10; stroke-width: .25px;"/>
    <path d="M589.66,76.9c2.33-1.28,4.66-2.63,6.91-4.13,3.98-2.56,7.74-5.34,11.35-8.42" style="fill: none; stroke: #000; stroke-miterlimit: 10; stroke-width: .25px;"/>
    <path d="M394.39,14.82c30.59,24.58,54.57,57.95,89.37,76.21.08.08.23.08.3.15" style="fill: none; stroke: #000; stroke-miterlimit: 10; stroke-width: .25px;"/>
    <path d="M354.48,98.1c.45-.68.9-1.43,1.35-2.1,4.74-7.14,9.47-14.36,13.38-21.95,3.76-7.44,6.76-15.26,9.77-23l12.85-33.6" style="fill: none; stroke: #000; stroke-miterlimit: 10; stroke-width: .25px;"/>
    <path d="M167.41,52.1c-7.74,33.22-9.17,67.87-4.21,101.62-34.42,5.86-69.37,8.72-104.4,8.42,8.34,6.54,10.67,17.81,13.08,28.11,11.12,47.8,35.33,92.52,69.3,128" style="fill: none; stroke: #000; stroke-miterlimit: 10; stroke-width: .25px;"/>
    <path d="M141.55,319.07c35.25,38.56,74.48,73.43,116.95,103.8-46.6,29.84-84.86,72.68-109.21,122.36-.98,1.88-1.88,3.76-2.78,5.71" style="fill: none; stroke: #000; stroke-miterlimit: 10; stroke-width: .25px;"/>
    <path d="M73.3,697.12c9.7-13.98,18.56-28.64,26.46-43.74,6.54-12.55,12.33-25.4,18.19-38.26,10.52-23.3,21.12-46.52,31.64-69.75" style="fill: none; stroke: #000; stroke-miterlimit: 10; stroke-width: .25px;"/>
    <path d="M74.28,694.34c-.98.53-1.28,1.65-1.05,2.78.15.83.53,1.58,1.13,2.1,1.43,1.28,3.46,1.5,5.34,1.73,11.12,1.13,22.25,2.25,33.37,3.31,6.91.75,13.9,1.43,20.89.98,7.44-.45,14.81-2.18,22.25-2.86,13.98-1.35,28.34.9,41.19,6.54-4.43,33.22.68,67.57,14.58,98.08.08.23.23.45.3.68" style="fill: none; stroke: #000; stroke-miterlimit: 10; stroke-width: .25px;"/>
    <path d="M210.7,807.61c.45-.23.83-.38,1.28-.6,33.45-15.11,66.89-30.29,100.26-45.47,11.2-5.04,22.4-10.15,32.47-17.21,29.39-20.59,45.47-55.54,72.53-79.07" style="fill: none; stroke: #000; stroke-miterlimit: 10; stroke-width: .25px;"/>
    <path d="M418.06,664.05c20.22-16.38,39.53-34.05,57.65-52.69-2.18,27.06,20.22,50.21,44.34,62.83,24.05,12.63,51.33,19.02,73.58,34.72" style="fill: none; stroke: #000; stroke-miterlimit: 10; stroke-width: .25px;"/>
    <path d="M595.52,709.82c7.59,8.64,15.18,17.29,22.7,25.86,4.28,4.89,8.57,9.7,13.53,13.83,11.42,9.4,25.86,14.28,40.14,18.41,15.26,4.36,30.82,8.12,46.45,11.12.45.15.83.23,1.28.3" style="fill: none; stroke: #000; stroke-miterlimit: 10; stroke-width: .25px;"/>
    <path d="M718.33,778.97c20.29-30.44,29.31-68.17,24.88-104.47,11.05-8.19,25.03-10.9,38.56-13.38,21.42-3.91,42.77-7.89,64.19-11.8" style="fill: none; stroke: #000; stroke-miterlimit: 10; stroke-width: .25px;"/>
    <path d="M597.1,753.19c.45.38.9.75,1.43.98,1.35,1.05,2.86,1.73,4.43,2.25,1.05.45,2.25.75,3.38.9" style="fill: none; stroke: #000; stroke-miterlimit: 10; stroke-width: .25px;"/>
    <path d="M570.04,714.94c3.53,2.93,6.84,6.09,10,9.55,3.91,4.28,7.52,8.94,10.6,13.83,3.23,4.89,5.94,10,8.27,15.33" style="fill: none; stroke: #000; stroke-miterlimit: 10; stroke-width: .25px;"/>
    <path d="M669.55,407.68c25.55,27.81,51.11,55.62,76.74,83.43,42.84,46.6,87.34,96.13,101.99,157.61h.08c.15.75.38,1.58.53,2.33" style="fill: none; stroke: #000; stroke-miterlimit: 10; stroke-width: .25px;"/>
    <path d="M669.7,405.8c-4.96-1.05-7.37-7.22-6.16-12.1,1.2-4.96,4.96-8.79,8.57-12.25,44.42-42.62,101.39-75.69,128.07-131.23,13.08-27.21,17.59-57.57,21.87-87.49" style="fill: none; stroke: #000; stroke-miterlimit: 10; stroke-width: .25px;"/>
    <path d="M824.53,159.65c-10.67-10.45-27.43-10.9-42.47-10.22-14.96.68-31.42,1.35-43.22-7.89-9.4-7.44-13.6-19.47-17.36-30.82-8.19-24.95-16.31-49.83-24.5-74.71l-.23-.68" style="fill: none; stroke: #000; stroke-miterlimit: 10; stroke-width: .25px;"/>
    <path d="M696.23,36.24c-42.01,22.62-84.03,45.32-126.04,67.94-16.84,9.09-33.82,18.26-48.25,30.67-30.14,25.78-48.18,64.41-81.02,86.51-.15.08-.3.23-.45.3" style="fill: none; stroke: #000; stroke-miterlimit: 10; stroke-width: .25px;"/>
    <path d="M166.5,50.9c.23-.08.45-.08.68-.15,13.08-2.86,26.68,1.65,39.23,6.31,19.09,7.14,37.96,14.73,56.45,23.3,26.08,12.03,51.41,25.7,76.74,39.46,9.47,5.11,18.94,10.3,26.83,17.59,9.02,8.49,15.33,19.39,23,29.09,5.56,7.07,11.88,13.53,18.11,19.99,10.75,11.12,21.5,22.17,32.24,33.22" style="fill: none; stroke: #000; stroke-miterlimit: 10; stroke-width: .25px;"/>
    <path d="M19.26,483.14c9.4,7.74,19.02,15.63,30.14,20.67,4.66,2.18,9.62,3.76,14.28,5.86,7.29,3.16,14.05,7.44,20.74,11.65,14.36,9.02,28.64,18.04,42.99,27.06.08.08.15.08.23.15" style="fill: none; stroke: #000; stroke-miterlimit: 10; stroke-width: .25px;"/>
    <path d="M18.44,479.16c21.04-27.58,44.87-52.91,71.25-75.54-25.1-13.23-46.98-32.54-63.06-55.84-5.49-7.89-10.45-16.84-9.77-26.38,30.52-8.12,60.95-16.16,91.47-24.35.15,0,.23-.08.38-.08.3-.08.53-.15.83-.23" style="fill: none; stroke: #000; stroke-miterlimit: 10; stroke-width: .25px;"/>
    <path d="M334.94,770.1l6.09,9.47" style="fill: none; stroke: #000; stroke-miterlimit: 10; stroke-width: .25px;"/>
    <path d="M344.86,763.56c12.1,14.81,23.68,30.44,31.04,48.1,35.7-18.79,69.9-40.44,102.22-64.56,13.6,32.39,29.76,67.57,61.78,82.23" style="fill: none; stroke: #000; stroke-miterlimit: 10; stroke-width: .25px;"/>
    <path d="M540.88,830.91c0-.53.08-.98.15-1.5.98-7.22,8.42-12.18,13.53-17.74,5.64-6.09,9.02-13.98,12.25-21.65,6.99-16.61,13.98-33.3,20.97-49.91" style="fill: none; stroke: #000; stroke-miterlimit: 10; stroke-width: .25px;"/>
    <path d="M817.32,541.47l.9,2.03c1.05,2.33,2.03,4.74,3.08,7.14,1.43,3.31,2.86,6.61,4.28,9.92" style="fill: none; stroke: #000; stroke-miterlimit: 10; stroke-width: .25px;"/>
    <path d="M677.74,392.87c0-.15-.15-.23-.23-.3-.45-.23-1.2.08-1.35.68-.08.75.38,1.35.9,1.95,2.33,2.78,4.74,5.64,7.14,8.42l1.35,1.58" style="fill: none; stroke: #000; stroke-miterlimit: 10; stroke-width: .25px;"/>
    <path d="M785.9,303.96c28.26,12.7,56.29,25.86,84.03,39.61-18.87,30.44-37.66,60.88-56.52,91.24,31.64,16.69,53.81,50.13,56.75,85.76-19.32,2.48-38.03,9.7-54.12,20.67-1.5.98-3.01,2.03-4.43,3.16" style="fill: none; stroke: #000; stroke-miterlimit: 10; stroke-width: .25px;"/>
    <path d="M351.02,106.59c1.65-3.53,3.23-7.14,4.81-10.6.23-.38.38-.68.53-1.05" style="fill: none; stroke: #000; stroke-miterlimit: 10; stroke-width: .25px;"/>
    <path d="M484.06,90.51c11.65-10.45,23.22-20.97,34.8-31.42,11.2-10,22.47-20.14,35.55-27.51,2.71-1.5,6.31-2.78,8.64-.68,1.58,1.43,1.65,3.83,2.1,5.94,1.28,6.24,6.01,11.05,10.6,15.48,6.91,6.84,13.9,13.6,20.82,20.44.15.08.3.23.45.38" style="fill: none; stroke: #000; stroke-miterlimit: 10; stroke-width: .25px;"/>
    <path d="M357.03,433.99c-.23,3.01-.3,6.09-.3,9.17.23,11.05,2.25,22.1,6.09,32.54,1.95,5.19,4.36,10.37,8.27,14.43,2.86,2.93,6.31,5.11,9.85,7.22,25.1,14.66,54.42,22.02,83.5,21.12,7.44-.23,14.96-1.05,21.72-3.98,16.91-7.44,25.33-26.01,32.32-42.99" style="fill: none; stroke: #000; stroke-miterlimit: 10; stroke-width: .25px;"/>
    <path d="M518.4,470.67c2.56-9.24,7.14-17.89,9.32-27.28,3.23-13.9.98-29.01-6.24-41.34-7.22-12.33-19.32-21.72-33.07-25.7-8.64-2.48-17.74-2.86-26.76-3.23-9.24-.38-18.49-.75-27.81-.98-17.44-.45-36.23.08-50.06,10.6-9.55,7.22-15.41,18.26-19.17,29.61-3.31,10.07-5.19,20.59-7.89,30.82-.3,1.28-.6,2.56-.98,3.83" style="fill: none; stroke: #000; stroke-miterlimit: 10; stroke-width: .25px;"/>
    <path d="M341.93,467.43c1.05-.45,2.1-.9,3.23-1.28.75-.3,1.58-.6,2.33-.9" style="fill: none; stroke: #000; stroke-miterlimit: 10; stroke-width: .25px;"/>
    <path d="M342,468.49c-24.8,29.69-46.75,61.86-72.15,91.02-25.48,29.16-55.17,55.77-90.87,70.8" style="fill: none; stroke: #000; stroke-miterlimit: 10; stroke-width: .25px;"/>
    <path d="M178.9,630.46c14.05,10.67,32.62,15.11,49.98,11.95-5.49,14.73-6.54,31.12-2.86,46.45,69.67-15.78,130.1-68.17,155.51-134.99,4.36-11.35,7.82-23.3,14.88-33.22.08-.15.15-.38.3-.53" style="fill: none; stroke: #000; stroke-miterlimit: 10; stroke-width: .25px;"/>
    <path d="M205.44,629.7c13-2.93,26.38-4.06,39.61-3.31-2.86,13.3-4.81,26.83-5.86,40.44,9.77-2.41,19.24-5.86,28.26-10.3,32.09-16.01,56.6-43.74,80.27-70.73" style="fill: none; stroke: #000; stroke-miterlimit: 10; stroke-width: .25px;"/>
    <path d="M347.94,585.06c9.55-12.85,17.66-26.76,24.13-41.34,3.98-9.09,7.37-18.49,13.38-26.38" style="fill: none; stroke: #000; stroke-miterlimit: 10; stroke-width: .25px;"/>
    <path d="M204.53,628.8c.08-.08.15-.08.23-.15,15.41-9.62,32.69-16.61,46.45-28.41,14.66-12.63,24.35-29.84,33.75-46.75.08-.08.08-.23.15-.3" style="fill: none; stroke: #000; stroke-miterlimit: 10; stroke-width: .25px;"/>
    <path d="M285.71,553.87c12.7-7.52,21.04-20.37,29.76-32.32,10.3-13.98,21.72-27.06,34.2-39.23l.83-.83" style="fill: none; stroke: #000; stroke-miterlimit: 10; stroke-width: .25px;"/>
    <path d="M406.87,337.41c-28.86-25.78-60.2-48.78-88.54-75.24-28.26-26.46-53.89-57.05-67.64-93.2" style="fill: none; stroke: #000; stroke-miterlimit: 10; stroke-width: .25px;"/>
    <path d="M250.46,168.82c-11.05,13.68-16.16,32.17-13.6,49.61-14.58-6.01-30.89-7.59-46.3-4.51,13.38,70.27,63.74,132.36,129.65,160.09,11.2,4.74,23.07,8.64,32.77,16.01.15.08.23.23.38.3" style="fill: none; stroke: #000; stroke-miterlimit: 10; stroke-width: .25px;"/>
    <path d="M250.38,195.43c2.48,13.08,3.08,26.46,1.95,39.68-13.23-3.23-26.68-5.71-40.29-7.22,2.1,9.85,5.26,19.39,9.4,28.56,14.88,32.69,41.71,58.1,67.94,82.6" style="fill: none; stroke: #000; stroke-miterlimit: 10; stroke-width: .25px;"/>
    <path d="M290.14,339.36c12.48,10,26.08,18.56,40.51,25.48,8.79,4.28,18.04,7.97,25.7,14.13l.15.15" style="fill: none; stroke: #000; stroke-miterlimit: 10; stroke-width: .25px;"/>
    <path d="M251.28,194.6c.08.08.08.15.15.23,9.09,15.71,15.48,33.22,26.83,47.35,12.1,15.11,28.94,25.33,45.55,35.33.08,0,.23.08.3.15" style="fill: none; stroke: #000; stroke-miterlimit: 10; stroke-width: .25px;"/>
    <path d="M323.44,278.18c6.99,13,19.62,21.8,31.27,30.97,13.9,10.97,26.91,23.15,38.78,36.3" style="fill: none; stroke: #000; stroke-miterlimit: 10; stroke-width: .25px;"/>
    <path d="M407.84,336.58c8.42,5.86,16.91,11.72,25.33,17.59" style="fill: none; stroke: #000; stroke-miterlimit: 10; stroke-width: .25px;"/>
    <path d="M391.46,345.07c.45.38.83.75,1.28,1.2,4.28,3.83,8.64,7.74,12.93,11.57" style="fill: none; stroke: #000; stroke-miterlimit: 10; stroke-width: .25px;"/>
    <path d="M353.28,377.92c1.05.38,2.03.75,3.08,1.05,1.95.75,3.98,1.43,5.94,2.1" style="fill: none; stroke: #000; stroke-miterlimit: 10; stroke-width: .25px;"/>
    <path d="M352.9,390.09c1.5,2.86,2.41,5.94,2.71,9.09.08.38.15.68.15,1.05" style="fill: none; stroke: #000; stroke-miterlimit: 10; stroke-width: .25px;"/>
    <path d="M489.84,530.04c33.37,19.77,68.55,36.23,101.39,56.67,32.92,20.44,63.89,45.47,84.48,78.32" style="fill: none; stroke: #000; stroke-miterlimit: 10; stroke-width: .25px;"/>
    <path d="M675.94,665.1c8.19-15.56,9.62-34.65,3.76-51.26,15.41,3.08,31.79,1.43,46.3-4.58-26.76-66.29-88.16-117.48-158.21-131.91-12.03-2.56-24.5-4.06-35.48-9.55-.08,0-.15-.08-.23-.08" style="fill: none; stroke: #000; stroke-miterlimit: 10; stroke-width: .25px;"/>
    <path d="M670.83,639.02c-4.89-12.33-8.12-25.4-9.55-38.56,13.6.68,27.28.38,40.89-.68-3.98-9.24-8.87-18.11-14.73-26.23-20.97-29.16-52.24-48.93-82.68-67.94" style="fill: none; stroke: #000; stroke-miterlimit: 10; stroke-width: .25px;"/>
    <path d="M603.94,505.54c-14.13-7.44-29.16-13.23-44.65-17.21-9.55-2.48-19.39-4.36-28.11-9.02" style="fill: none; stroke: #000; stroke-miterlimit: 10; stroke-width: .25px;"/>
    <path d="M670.15,640l-.23-.23c-11.95-13.6-21.57-29.54-35.48-41.19-14.81-12.48-33.37-19.32-51.56-25.78-.08-.08-.23-.15-.3-.15" style="fill: none; stroke: #000; stroke-miterlimit: 10; stroke-width: .25px;"/>
    <path d="M583.19,571.98c-9.47-11.42-23.53-17.59-36.68-24.28-15.78-8.12-30.89-17.51-45.1-28.19" style="fill: none; stroke: #000; stroke-miterlimit: 10; stroke-width: .25px;"/>
    <path d="M537.64,408.28c.75-1.05,1.5-2.1,2.25-3.16,21.72-30.44,40.89-62.76,63.51-92.6,23.45-30.82,51.26-59.38,85.83-76.81" style="fill: none; stroke: #000; stroke-miterlimit: 10; stroke-width: .25px;"/>
    <path d="M689.32,235.49c-14.73-9.62-33.6-12.78-50.66-8.49,4.43-15.11,4.28-31.49-.38-46.52-68.47,20.52-125.14,76.96-145.96,145.36-3.61,11.8-6.24,24.2-12.85,34.65" style="fill: none; stroke: #000; stroke-miterlimit: 10; stroke-width: .25px;"/>
    <path d="M662.86,238.12c-12.78,3.76-26.01,5.79-39.31,6.01,1.95-13.53,2.93-27.13,3.08-40.81-9.55,3.08-18.79,7.22-27.43,12.25-30.97,18.11-53.51,47.43-75.24,76.06" style="fill: none; stroke: #000; stroke-miterlimit: 10; stroke-width: .25px;"/>
    <path d="M523.74,292.39c-8.64,13.45-15.78,27.88-21.2,42.92-3.38,9.24-6.16,18.94-11.57,27.21" style="fill: none; stroke: #000; stroke-miterlimit: 10; stroke-width: .25px;"/>
    <path d="M663.76,238.87c-.08.08-.15.08-.23.15-14.66,10.75-31.42,18.87-44.34,31.64-13.75,13.53-22.25,31.42-30.44,48.93-.08.08-.08.23-.15.3" style="fill: none; stroke: #000; stroke-miterlimit: 10; stroke-width: .25px;"/>
    <path d="M588,319.22c-12.18,8.34-19.62,21.8-27.58,34.27-8.64,13.6-18.34,26.61-29.09,38.78-.98,1.2-2.03,2.41-3.08,3.61" style="fill: none; stroke: #000; stroke-miterlimit: 10; stroke-width: .25px;"/>
    <path d="M19.57,476.15c-.15,1.05-.6,2.1-1.13,3.01l-.08.08c-.3.53-.68,1.05-1.05,1.5-.15.23-.3.38-.3.6,0,.3.3.53.6.68.6.3,1.2.6,1.73.98,5.71,3.16,10.9,7.14,15.56,11.72" style="fill: none; stroke: #000; stroke-miterlimit: 10; stroke-width: .25px;"/>
    <path d="M88.56,273.44c.08.38.15.68.3,1.05.98,3.31,2.71,6.39,5.04,8.87,0,0,0,.08.08.08,3.61,3.83,8.42,6.46,12.03,10.52.83.98,1.58,2.03,2.33,3.08.6.9,1.2,1.88,1.73,2.78" style="fill: none; stroke: #000; stroke-miterlimit: 10; stroke-width: .25px;"/>
  </g>
</svg>