<?xml version="1.0" encoding="UTF-8"?>
<svg id="Layer_1" data-name="Layer 1" xmlns="http://www.w3.org/2000/svg" viewBox="0 0 416.83 522.06">
  <path d="m2.29,273.93c-.02-5.04-.04-10.1-.07-15.15-.03-5.17-.04-10.39,1.05-15.43,1.4-6.38,4.53-12.23,7.82-17.85,5.21-8.9,10.92-17.5,16.62-26.09,4.91-7.4,9.86-14.83,16.01-21.24l.07.06c15.22-12.53,28.36-27.59,38.69-44.38,3.87-6.28,7.37-12.83,12.27-18.35,3.8-4.28,8.52-8.06,10.52-13.42l.17.06c3.15-9.34,5.79-18.91,10.26-27.69,4.57-8.97,11.38-17.23,20.61-21.25,2.08,3.38,3.42,7.22,3.9,11.15l.21.11c-.59,3.3.73,6.67,2.62,9.43,1.91,2.75,4.38,5.05,6.52,7.62,7.81,9.39,10.8,21.83,17.22,32.23,2.66,4.29,6.03,8.89,5.55,13.8.94-10.69.77-21.49-.47-32.14l-.43-.67c1.54-14.12-1.46-28.71-8.45-41.09-3.08-5.48-6.99-10.66-8.51-16.77-1.5-6.05.2-13.51,5.72-16.33l.07.12c10.56-1.67,21.12-3.34,31.69-5.01,4.38-.68,8.9-1.38,13.2-.33,2.59.62,4.99,1.85,7.34,3.1,14.63,7.83,28.89,17.72,37.15,32.11.53.92,1.03,1.98,1.11,3.01h.11c14.29,17.78,19.4,42.5,13.49,64.51-.29.28-.44.72-.56,1.11-.8,2.58-1.58,5.16-2.38,7.74h.01c.33,2.66-4.16,4.9-.8,6.02,5.99,2.99,11.1-2.02,14.48-7.31.91-1.05,1.63-2.48,2.33-3.9,6.72-20.17,11.21-41.47,13.45-62.76,3.36-23.54,13.45-49.32,36.99-58.28,3.36-1.12,10.09,0,10.09,3.36,1.08,4.29-2.98,8.57-5.16,12.98l.55.27c-4.99,14.36-10,30.07-4.97,44.42,2.38,6.78,6.83,12.61,10.3,18.9,10.92,19.74,11.75,44.73,2.15,65.14,19.28-15.55,29.23-41.91,25.01-66.32-1.36-7.81-4.44-15.92-11.03-20.32l.17-.72c-3.46-6.58-6.92-13.16-10.38-19.74,4.57.04,9.15.08,13.72.11,4.8.04,9.65.09,14.31,1.26,13.42,3.34,23.13,15.65,27.27,28.84,4.12,13.12,3.69,27.18,3.19,40.93.24,1.13.47,2.25.72,3.38-4.27,20.01-9.35,40.39-21.81,56.47l.13.1c-.55.66-.93,1.48-1.05,2.33-3.91,9.11-5.01,18.06-2.78,26.99,3.31,18.73,9.86,37.46,19.66,54.31l.18-.1,3.56,5.85c1.61,2.66,3.24,5.32,5.31,7.63.67.75,1.48,1.51,2.44,1.71h.01c4.58,6.34,7.81,13.74,6.94,22.49-2.24,14.57-7.85,26.9-13.45,40.35-1.03,3.09-1.11,6.18-.93,9.43h-.1c-.58,18.16-6.62,36.09-17.14,50.88l-.03-.02c-9.92,14.56-20.76,28.47-32.44,41.64l-.46.04c-1.84,5.94-5.32,11.36-9.98,15.5-3.16,2.81-6.83,5.03-9.95,7.88-2.79,2.57-5.12,5.59-7.82,8.25-6.99,6.85-16.2,10.85-25.17,14.72l-.24.55c-12.38,1.28-24.76,2.57-37.14,3.86-1.02.1-2.07.21-3.09.04-1.14-.18-2.21-.69-3.23-1.26-1.59-.86-3.13-1.83-4.6-2.89-2.25-1.63-4.36-3.47-6.24-5.51-.3-.31-.59-.64-.87-.96l.2-.56c-.24-.5-.44-1.01-.63-1.52-2.22-5.9-2.06-12.5-1.37-18.8.75-6.85,2.07-13.72,1.4-20.58l.44-.74c-3.49-8.51-6.97-17.01-10.46-25.52-1.7-4.15-3.41-8.33-4.23-12.73-1.2-6.48-.43-13.15.37-19.69,1.14-9.49,2.29-19.01,4.09-28.41-.01-.01,0-.01,0-.01.01-5.02,4.7-9.3,4.4-14.35-.13-2.23-1.26-4.34-1.24-6.58,0-2.76,1.68-5.19,3.3-7.43,9.22-12.79,18.61-25.73,30.86-35.65.73-.59,1.54-1.2,2.47-1.24.94-.06,1.8.46,2.6.95,5.18,3.23,10.37,6.46,15.55,9.68l.92-.21c5.94,5.57,9.3,13.34,11.88,21.06,1.1,3.32,2.08,6.69,2.5,10.15.4,3.35.26,6.75.03,10.11-.78,11.47-2.53,22.88-5.25,34.04h-.08c-.94,14-1.24,28.05-.92,42.07,2.26-3.44,4.86-6.65,7.46-9.84,5.62-6.9,11.23-13.81,16.85-20.71l.18.15c3.62-2.73,7.43-5.7,9-9.96.96-2.62.99-5.5,1.76-8.19,1.7-5.96,6.8-10.3,9.69-15.8,2.48-4.71,3.25-10.09,4.28-15.31,2.06-10.52,5.31-20.81,9.64-30.62l.03-.36c1.02-9.87-1.33-19.89-5.46-28.93-4.11-9.03-9.93-17.18-16.12-24.95-7.69-9.66-15.99-18.83-24.85-27.44l-.15-.1c-12.08-9.11-28.02-11.32-43.15-11.13-2.8.03-5.64.15-8.38.73-3.7.78-7.17,2.42-10.59,4.03-8.45,3.99-17.36,8.38-22.23,16.36-3.72,6.09-4.88,13.99-10.43,18.46l.66.82c-1.71,7.66-3.62,15.25-5.73,22.82-.46,1.63-.93,3.27-1.85,4.68-1.14,1.75-2.88,3.01-4.57,4.24-2.61,1.88-5.23,3.77-7.85,5.65-4.14-5.31-7.13-11.52-8.72-18.07l.09-.06c-2.63-3.77-3.63-8.41-4.97-12.81-3.65-12.17-10.23-23.54-19.41-32.32-9.19-8.78-21.03-14.9-33.61-16.67l-.62-.06c-6.32-1-12.78-.01-19.05,1.21-3.6.69-7.21,1.47-10.6,2.85-5.85,2.38-10.84,6.43-15.7,10.47-7.37,6.13-14.67,12.34-21.91,18.63l-.2.11c-4.05,3.4-6.85,8.06-9.02,12.87-6.97,15.47-8,32.85-8.92,49.79l-.56.26c-.12,19.03,11.51,35.93,16.59,54.27,1.18,7.2,5.36,13.54,9.92,19.23,4.57,5.72,9.66,11.11,13.14,17.55,2.56,4.72,4.62,10.38,9.5,12.62-1.24-5.18,3.01-9.82,6.16-14.1,3.8-5.17,6.37-11.41,6.34-17.83-.01-3.75-.89-7.45-1.76-11.11-2.08-8.65-4.16-17.32-6.23-25.98l.33-.24c-1.8-2.53-3.64-5.17-4.26-8.22-.4-2.02-.24-4.11-.37-6.18-.27-4.35-1.88-8.61-4.57-12.04,8.54-3.28,17.89-3.67,27.03-3.9,5.34-.15,10.88-.21,15.75,1.98,6.67,3,10.83,9.62,16.2,14.58,3.74,3.46,8.17,6.18,11.6,9.95,2.12,2.34,3.82,5.07,5,8l-.25.56c-.77,12.22-2.56,24.38-5.32,36.3-1.63,6.98-3.6,14.05-2.91,21.19h.28c-1.13,4.48,0,9.28,2.02,13.45s4.86,7.87,7.4,11.75c7.02,10.71,11.67,22.98,13.55,35.65l-1.39.17c3.36,11.3,6.75,23.3,3.69,34.69-.1.36-.2.72-.31,1.06-.48,1.57-1.08,3.1-1.79,4.58-.21.44-.44.86-.66,1.29l.18.13c-1.12,1.59-2.48,2.98-4.02,4.16-2.6,2-5.68,3.4-8.87,4.24-5.09,1.33-10.42,1.33-15.68.99-10.83-.73-21.56-2.95-31.8-6.57l-1.06.76c-4.95-2.15-9.98-4.33-15.31-5.12-1.98-.29-3.99-.39-5.94-.87-2.21-.55-4.27-1.58-6.22-2.75-7.34-4.35-13.6-10.85-16.59-18.84l-.76-.57c-3.88-5.68-5.81-12.43-7.68-19.05-1.19-4.24-2.39-8.46-3.58-12.69l.03-.1c.21-5.99-1.26-12.03-4.21-17.25-1.96-3.43-4.52-6.48-7.14-9.44-3.87-4.36-7.9-8.57-12.1-12.62-2.93-2.84-5.95-5.6-8.41-8.87-2.69-3.59-4.61-7.69-6.67-11.68-3.45-6.66-7.35-13.09-11.68-19.21l.18-.12c-3.72-7.32-6.15-15.21-8.55-23.05-1.45-4.72-2.89-9.46-3.51-14.36-.63-5.01-.39-10.09-.15-15.14.58-11.87,1.15-23.75,1.74-35.63h.04ZM160.86,27.45c-.98,3.56-.5,7.49,1.28,10.71,2.35,4.24,6.69,7.03,9.45,11.01,2.05,2.96,3.16,6.46,4.14,9.93,3.79,13.46,6.04,27.35,6.7,41.31l-.78.03c-1.17,8.79-.93,17.74-2.51,26.46-1.58,8.72-5.36,17.56-12.64,22.61,3.33-17.06-2.06-35.59-14.02-48.19l-.41-.5c-1.37-5.63-7.05-8.97-10.32-13.74-1.55-2.26-2.54-4.84-3.53-7.4-1.88-4.89-3.77-9.76-5.65-14.65-4.54,4.09-8.42,8.9-11.45,14.2l-.08.78c-1.01,5.51-2.05,11.1-4.37,16.21-3.44,7.57-9.47,13.58-14.34,20.32-5.41,7.53-9.39,15.99-14.12,23.99-4.72,7.99-10.41,15.7-18.27,20.66l-.29-.33c-2.07,1.86-4.08,3.8-6.03,5.79-.69.72-1.42,1.49-1.66,2.47h-.19c-10.05,12.19-20.12,24.4-30.17,36.61-2.24,2.72-4.53,5.51-5.83,8.81l-.36.81c-5.74,10.66-8.45,22.65-11.08,34.46l-5.04,22.49.53.54c-1.79,11.99-3.59,24.11-2.71,36.21.85,11.89,4.27,23.47,5.51,35.32,1.83,5.08,4.39,9.85,6.95,14.6,4.35,8.06,8.71,16.15,14.21,23.47,2.06,2.76,4.28,5.38,6.5,8.01,3.38,4,6.76,8.01,10.13,12.01l-.36.3c4.01,5.97,10.23,10.12,14.62,15.83,7.9,10.3,8.87,24.16,9.5,37.13l.77.62c.85,7.96,6.19,14.62,11.3,20.77.56.67,1.11,1.33,1.67,2.01l-.21.24c3,2.77,6.06,5.51,9.71,7.34,2.57,1.28,5.36,2.05,8.11,2.82,15.99,4.45,32.03,8.92,48.45,11.33l.28-.08c4.82-.5,9.73-1.04,14.28-2.81h0c1.48-1.01,2.95-2.04,4.42-3.06.45-.3.94-.63,1.47-.65,4.2-4.67,1.56-14.1,1.13-19.75-.53-7.03-.47-14.49-2.8-21.21h-.03c-.48-2.95-1.38-5.81-2.39-8.62-4.05-11.41-9.78-22.23-16.95-31.98h0c-3.52-11.22-3.35-23.54.48-34.64h.06c.2-6.48,2.79-12.68,3.83-19.09,1.38-8.45-.01-17.32-3.9-24.94l-.46.22c-5.16-9.57-14.26-16.68-24.35-20.69-10.11-4.02-21.18-5.14-32.04-4.71-.63,1.14.27,2.48,1,3.55,3.51,5.18,3.92,11.78,5.62,17.81,2.25,8.02,6.9,15.28,8.72,23.42,2.14,9.58.21,19.52-1.91,29.14l-.59-.08c-5.26,7.7-8.61,16.7-9.68,25.96-.34,2.85-.37,6.01,1.42,8.25l-.08.81c-5.01-.33-9.2-4.09-11.99-8.28-2.8-4.23-4.63-9.04-7.55-13.18-4.79-6.77-12.43-11.69-15.16-19.52l.45-.46c-8.8-16.39-16.69-33.27-23.59-50.54h-.18c-.02-12.97-4.61-25.62-4.55-38.59.03-8.75,2.17-17.36,4.3-25.86l-.41-.21c1.08-2.03,2.14-4.08,3.23-6.12,3.13-5.93,6.24-11.86,9.37-17.79,2.36-4.47,4.74-8.98,7.87-12.96l-.22-.21c5.92-6.22,13.15-11.04,20.31-15.8,4.27-2.84,8.55-5.68,13.18-7.89,11.88-5.69,25.83-6.9,38.51-3.34l.52.46c11.2,2.61,21.96,7.11,31.69,13.24,2.11,1.33,4.19,2.76,5.95,4.52,1.42,1.43,2.62,3.07,3.77,4.73,8.51,12.35,14.3,26.56,16.83,41.34l-.74.3c.93,2.32,1.59,4.77,2.97,6.86,1.79,2.71,5.6,4.62,8.28,2.79,2.02-1.38,2.42-4.12,2.73-6.55,2.42-18.58,9.99-36.46,21.64-51.13l-.25-.19c2.75-3.4,6.84-5.41,10.85-7.18,16.32-7.18,34.71-12.04,51.92-7.39l.65-.26c4.84.55,9.39,2.51,13.76,4.64,5.13,2.5,10.13,5.26,14.99,8.25,4.07,2.51,8.05,5.21,11.53,8.46,5.19,4.84,9.17,10.8,13.1,16.71l.03.49c10,11.07,16.79,24.99,19.38,39.69,2.59,14.69.95,30.1-4.66,43.92l.67.26c-4.85,17.1-11.53,33.69-19.89,49.37-15.16,14.19-24.75,33.56-40.05,47.59-6.61-10.76-10.3-23.28-10.6-35.9h.67c5.03-15.07,6.98-30.97,8.91-46.75.74-6.16,1.45-12.69-1.11-18.36l-.27.13c-4.35-11.42-12.38-21.41-22.62-28.1-3.35,2.87-7.4,4.81-10.86,7.54-6.28,4.95-10.26,12.23-13.61,19.49-5.58,12.1-9.92,24.78-12.91,37.77l.18.04c-2.21,13.08-4.36,26.76-.37,39.42,2.04,6.46,5.57,12.31,8.48,18.4,2.91,6.06,5.26,12.68,4.7,19.38,1.28,14.25-3.96,29.56,1.46,43.51l.47-.12c.3.85.93,1.59,1.67,2.12.95.69,2.07,1.1,3.18,1.49,20.24-2.04,42.13-1.2,58.34-14.07l.09-.37c4.73-3.97,9.46-7.92,14.19-11.88,2.29-1.92,4.58-3.84,6.67-5.99,5.87-6,9.94-13.47,14.73-20.38,4.88-7.02,10.51-13.46,16.15-19.88l-.29-1.12c8.91-8.9,15.29-20.11,19.59-31.94,4.3-11.82,6.61-24.3,8.14-36.8l-.25-.07c4.43-15.98,14.82-30.17,11.75-47.5-2.22-3.62-2.88-7.98-4-12.09-1.91-6.92-5.28-13.34-8.72-19.65-.27-.5-.55-1.02-.83-1.52l-.26.13c-1.41-2.72-2.81-5.46-4.23-8.17l-.04-.59c-7.02-13.07-13.3-26.71-16.37-41.22-3.07-14.51-2.73-30.07,3.16-43.69,5.69-13.17,16.29-23.99,20.68-37.66,3.12-9.73,2.85-20.21,1.89-30.38-1-10.54-2.94-21.56-9.63-29.76-8.36-10.24-22.19-13.86-35.06-16.9,22.58,19.26,28.7,55.19,13.77,80.83-8.73,15-23.11,25.77-37.5,35.46,12.09-22.48,16.42-50.3,6.32-73.75-4.16-9.64-10.58-18.31-13.42-28.41-5.17-18.38,2.38-37.67,9.77-55.26-11.95,3.13-20.58,13.93-24.88,25.51-4.32,11.58-5.11,24.1-6.79,36.34-1.91,13.84-4.97,27.5-8.33,41.07-1.89,7.62-4.06,15.56-9.33,21.38-4.01,4.44-9.47,7.25-14.81,9.96-6.52,3.31-13.05,6.62-19.57,9.95.1-1.55.37-3.08.8-4.57.52-1.82,1.27-3.55,1.94-5.3,3.38-8.73,5.14-18.09,5.18-27.46l.15-.31c.1-6.01.2-12.01.3-18.02.06-3.63.11-7.3-.62-10.85-.77-3.73-2.41-7.23-4.02-10.69-3.64-7.79-7.31-15.64-12.24-22.67-3.41-4.86-7.55-9.43-12.95-11.89l-.73-.3c-10.67-6.09-20.31-15.3-32.54-16.51-4.42-.44-8.88.24-13.23,1.14-6.78,1.41-13.44,3.38-20.08,5.36l-.1-.02Z"/>
  <path d="m158.44,172.69c15.31-9.06,22.51-27.53,26.62-44.96,3.99-16.89,6.21-34.45,3.74-51.64-2.34-16.27-9.22-32.27-21.04-43.64,23.28-4.85,48.93,3.25,65.1,20.75,16.7,18.1,22.57,45.49,14.75,68.85-2.06,6.15-4.99,12.05-6.2,18.41-1.1,5.75-.53,12.19,2.94,16.78l.19-.13c17.34-1.69,31.86-13.36,45.09-24.7,2.77-2.36,5.56-4.77,7.69-7.72,2.34-3.26,3.79-7.05,5.04-10.86,4.54-13.77,6.75-28.3,6.52-42.79-.19-12.78-1.97-26.72,5.21-37.28.54,34.12,26.91,65.68,20.6,99.21-2.28,12.07-8.67,23.02-11.26,35.04,2.88-.1,5.78.36,8.51,1.33,4.49-7.69,13.82-10.8,21.09-15.94,9-6.35,15.03-16.04,20.11-25.81,6.72-12.93,12.16-28.87,5.03-41.57l-.35-.16c.59-5.85-.19-11.84-2.25-17.35,3.13,4.21,7.85,7.61,11.26,11.76,1.14,1.39,2.14,2.87,2.97,4.43,5.11,9.3,5.1,21.17,2.12,31.54-3.47,12.12-10.4,22.88-16.35,33.98-5.94,11.1-11.07,23.21-10.45,35.79l1.06-.04c1.01,12.75,2.04,25.57,4.76,38.1,2.75,12.61,7.91,23.66,13.65,35.13,3.3,6.57,6.01,13.27,7.49,20.49h.04c1.19,9.06,1.98,18.18,2.39,27.33v.15c-1.49,11.95-3.98,23.75-7.23,35.37-13.45,45.95-38.11,86.3-78.46,115.44-12.33,7.85-25.78,13.45-40.36,12.18l-1.28-.16c-1.5-.2-3-.49-4.47-.87l-1.13-.22c2.31-17.09.37-34.76-5.6-50.94-3.5-9.46-8.34-18.45-10.8-28.22-3.95-15.64-1.49-32.34,4.03-47.48,5.54-15.14,14.01-29.01,22.43-42.76l.64-1.87c8.24,4.85,15.04,9.47,18.58,18.75,3.23,8.48,3.24,17.74,1.76,26.6-3.31,19.82-14.23,40.44-7.17,60.69,3.33,9.52,11.65,16.77,13.67,26.78l1.67.68c2.58-2.78,5.13-5.58,7.67-8.41,20.04-22.39,38.94-46.85,50.34-74.89,10.75-26.44,14.56-55.96,7.54-83.87-6.44-25.64-21.98-49.14-44.9-62.83-23.23-13.9-52.53-16.6-77.28-5-26.15,12.24-39.12,37.46-43.2,64.94-2.66-21-11.61-41.3-28.87-56.4-22.42-17.93-51.56-20.17-77.34-11.21-2.24,1.12-4.48,2.24-7.85,3.36-43.71,20.17-60.52,70.61-53.8,116.56,7.85,48.19,39.23,86.3,70.86,120.4l.06.28c.81,1.66,1.86,3.18,3.1,4.53.89-2.59,1.46-5.27,1.71-7.99l-.58-.07c-.67-9.5,1.32-18.99,3.87-28.1,4.17-14.95,10.82-30.54,8.92-46.39-1.69-14.1-10.77-25.59-16.17-38.34l.3-.09c-.68-1.63-.11-3.71,1.33-4.72l.04.06c13.34,3.55,25.69,10.7,35.42,20.5,3.73,3.77,7.17,8.07,8.61,13.17,1.36,4.79.84,9.9.03,14.81-2.91,17.76-9.41,36.13-3.84,53.26,2.59,7.97,7.62,14.88,11.56,22.29,9,16.94,12.25,36.86,9.12,55.78l-1.37-.21c-19.35,1.69-39.1-1.48-56.95-9.16-8.19-3.53-16.27-8.25-21.17-15.69-8.9-13.53-5.02-32.04-11.87-46.73-5.17-11.05-15.65-18.45-24.5-26.84-17.47-16.55-29.59-38.67-34.16-62.29l-.53.03c-2.24-30.99-4.24-63.07,6.64-92.15,13.95-37.39,46.74-63.91,70.85-95.72,14.34-18.91,25.76-40.01,33.75-62.36l2.42-.44c3.77,9.26,9.07,17.9,15.64,25.43,4.23,4.85,9.11,9.48,11.11,15.6,1.26,3.83,1.26,7.95,1.24,11.98-.03,12.83-.08,25.66-.11,38.49Z"/>
  <path d="m382.28,69.02c4.25,4.08,6.13,9.87,7.52,15.68-.83-1.56-1.83-3.04-2.97-4.43-3.42-4.15-8.14-7.54-11.26-11.76-.76-2.05-1.7-4.03-2.82-5.92l.4-.24c1.54,1.05,3.06,2.11,4.6,3.16,1.58,1.09,3.16,2.17,4.54,3.5Z"/>
  <path d="m223.63,265.89c13.11.77,27.2,1.31,38.33-5.67,6.76-4.25,11.68-10.87,15.67-17.79,1.85-3.22,3.58-6.65,3.9-10.34.54-6.02-2.97-12.09-8.27-15.01-5.21-2.86-11.86-2.71-17.17-.01-6.96.74-12.99,5.67-17.54,11.12-8.8,10.56-14.09,23.99-14.92,37.7Zm-161.66,86.66c-5.08-18.34-16.71-35.24-16.59-54.27l.56-.26c.92-16.94,1.95-34.32,8.92-49.79,2.17-4.81,4.98-9.47,9.02-12.87l.2-.11c7.24-6.29,14.54-12.5,21.91-18.63,4.86-4.03,9.85-8.09,15.7-10.47,3.4-1.38,7-2.15,10.6-2.85,6.28-1.22,12.73-2.21,19.05-1.21l.62.06c12.59,1.77,24.42,7.89,33.61,16.67,9.18,8.79,15.76,20.15,19.41,32.32,1.33,4.4,2.33,9.04,4.97,12.81l-.09.06c1.59,6.55,4.58,12.75,8.72,18.07,2.61-1.88,5.23-3.77,7.85-5.65,1.69-1.22,3.43-2.49,4.57-4.24.92-1.41,1.39-3.06,1.85-4.68,2.11-7.57,4.01-15.16,5.73-22.82l-.66-.82c5.56-4.47,6.71-12.37,10.43-18.46,4.86-7.98,13.77-12.37,22.23-16.36,3.42-1.61,6.89-3.25,10.59-4.03,2.75-.58,5.58-.69,8.38-.73,15.13-.19,31.07,2.02,43.15,11.13l.15.1c8.85,8.61,17.16,17.78,24.85,27.44,6.19,7.77,12,15.92,16.12,24.95,4.12,9.03,6.48,19.05,5.46,28.93l-.03.36c-4.33,9.81-7.58,20.1-9.64,30.62-1.03,5.22-1.8,10.6-4.28,15.31-2.89,5.5-7.99,9.84-9.69,15.8-.77,2.69-.8,5.57-1.76,8.19-1.57,4.26-5.38,7.23-9,9.96l-.18-.15c-5.62,6.9-11.23,13.81-16.85,20.71-2.6,3.19-5.2,6.4-7.46,9.84-.33-14.02-.02-28.08.92-42.07h.08c2.71-11.16,4.46-22.57,5.25-34.04.22-3.36.37-6.76-.03-10.11-.41-3.46-1.4-6.84-2.5-10.15-2.58-7.72-5.94-15.49-11.88-21.06l-.92.21c-5.18-3.23-10.37-6.46-15.55-9.68-.8-.49-1.66-1.01-2.6-.95-.93.04-1.74.65-2.47,1.24-12.25,9.92-21.63,22.86-30.86,35.65-1.61,2.24-3.3,4.67-3.3,7.43-.01,2.24,1.11,4.35,1.24,6.58.29,5.04-4.39,9.33-4.4,14.35,0,0-.01,0,0,.01-1.8,9.4-2.95,18.92-4.09,28.41-.8,6.55-1.57,13.21-.37,19.69.82,4.4,2.52,8.59,4.23,12.73,3.49,8.51,6.97,17.01,10.46,25.52l-.44.74c.67,6.86-.65,13.73-1.4,20.58-.69,6.3-.85,12.9,1.37,18.8l-1.3.07c-14.63,7.45-22.97,24.29-38.01,30.88-.75.33-1.56.64-2.38.56-.8-.08-1.51-.52-2.2-.94-5.3-3.32-10.6-6.64-15.89-9.94l-.86-.27c.11-.35.21-.71.31-1.06,3.06-11.39-.33-23.39-3.69-34.69l1.39-.17c-1.88-12.68-6.53-24.94-13.55-35.65-2.53-3.88-5.38-7.58-7.4-11.75s-3.15-8.97-2.02-13.45h-.28c-.68-7.14,1.29-14.21,2.91-21.19,2.77-11.93,4.55-24.09,5.32-36.3l.25-.56c-1.18-2.94-2.88-5.66-5-8-3.43-3.78-7.86-6.49-11.6-9.95-5.37-4.97-9.53-11.58-16.2-14.58-4.86-2.2-10.41-2.13-15.75-1.98-9.15.24-18.49.62-27.03,3.9,2.69,3.43,4.3,7.69,4.57,12.04.13,2.06-.03,4.16.37,6.18.62,3.05,2.45,5.68,4.26,8.22l-.33.24c2.07,8.66,4.15,17.33,6.23,25.98.87,3.65,1.75,7.35,1.76,11.11.02,6.42-2.54,12.67-6.34,17.83-3.15,4.28-7.41,8.92-6.16,14.1-4.89-2.24-6.95-7.9-9.5-12.62-3.47-6.44-8.56-11.84-13.14-17.55-4.56-5.69-8.74-12.04-9.92-19.23Zm-4.27-59.73c4.44-10.01,8.93-20.08,15.43-28.88,6.56-8.9,15.41-16.52,26.04-19.6,6.55-1.89,13.6-2.03,19.86-4.73,6.27-2.7,11.75-9.37,9.81-15.92-1.61-5.45-8.71-8.43-13.74-5.83-16.33.92-31.16,11.85-40.26,25.6-9.67,14.63-13.91,32.11-17.24,49.32l.1.04Z"/>
  <path d="m181.99,506.71c-2.14-.68-3.96-2.41-4.7-4.55l-1.1-.28c1.55-1.18,2.9-2.57,4.02-4.16l-.18-.13c.22-.43.45-.85.66-1.29l.9.44c5.48,5.27,11.4,10.11,17.64,14.45.49.34,1.02.69,1.61.75.77.08,1.5-.34,2.16-.74,14.11-8.54,28.85-17.71,36.84-32.12.95-1.73,2.05-3.7,3.97-4.11l.61-.55c1.88,2.04,3.99,3.89,6.24,5.51l-.13.2c-2.15,1.86-4.28,3.72-6.43,5.58l.43.49c-14.03,12.4-28.54,24.25-43.46,35.56l-.22-.3c-6.37-4.82-12.64-9.74-18.85-14.75Z"/>
</svg>